<svg width="85" height="89" viewBox="0 0 85 89" xmlns="http://www.w3.org/2000/svg"><g fill="none" fill-rule="evenodd"><path d="M0 31.847L39.909 1.429c1.76-1.342 4.592-1.327 6.336.04L85 31.847v53.157A4 4 0 0 1 81 89H4c-2.21 0-4-1.789-4-3.996V31.847z" fill="#CBD1D1"/><path fill="#43C35E" d="M9 10.96h66v36.951L41.781 68.114 9 48.376z"/><path d="M0 31.847l43.095 33.075L85 31.847v53.157A4 4 0 0 1 81 89H4c-2.21 0-4-1.789-4-3.996V31.847z" fill="#EFF0F1"/><path d="M39.292 59.69c1.774-1.324 4.65-1.323 6.424 0l36.072 26.914C83.562 87.927 83.205 89 81 89H4c-2.21 0-2.561-1.073-.788-2.396l36.08-26.914z" fill="#F9FAFA"/><path d="M40.782 41.338l-.458.484-6.107-6.484-1.06-1.06 2.12-2.122 5.303 5.302 10.142-9.302 1.564 1.326-11.503 11.856z" fill="#FFF"/></g></svg>